Patient4_TMGait_0pt6_01_left_38_EMG.mot
version=1
nRows=16
nColumns=33
inDegrees=no
endheader
time	1LAddLong	2LGlutMax	3LGlutMed	4LIliopsoas	5LSemiMemb	6LBicFemLong	7LRecFem	8LVastMed	9LVastLat	10LGasMed	11LTibAnt	12lTibPost	13LPeroneusLong	14LSol	15LExtDigLong	16LFlexDigLong	17RAddLong	18RGlutMax	19RGlutMed	20RIliopsoas	21RSemiMemb	22RBicFemLong	23RRecFem	24RVastMed	25RVastLat	26RGasMed	27RTibAnt	28RTibPost	29RPeroneusLong	30RSol	31RExtDigLong	32RFlexDigLong
47.13	0.013733	-0.00412	-0.19898	-0.019226	-0.014038	0.04303	-0.071716	0.001526	0.027008	0.56442	0.010986	-0.052643	-0.12451	1.2231	-0.012512	0.16739	0.00412	-0.17731	0.1413	-0.093231	-0.059967	0.10742	0.14252	0.004425	-0.5571	-0.006714	-0.006714	-0.008698	0.21271	0.054016	0.000305	-0.013733
47.131	0.016327	0.014801	-0.12863	-0.020905	-0.048828	0.065308	-0.070343	0.003967	0.019073	0.005188	0.00061	0.002136	0.066986	0.4425	-0.066223	-0.079956	0.018158	-0.097198	0.41046	-0.088196	0.28168	0.064697	0.15961	0.044708	-0.21896	-0.008392	-0.028992	-0.002594	0.20401	0.032654	-0.007019	-0.014648
47.132	0.015259	0.022278	-0.16403	0.010529	-0.003662	0.048218	-0.091553	0.009918	0.031281	-0.075378	0.015106	0.014343	0.20187	-0.67383	-0.097046	-0.36529	0.001068	0.10117	0.69351	0.027924	0.53696	0.049286	0.18951	0.49408	-0.14465	-0.003357	0.003052	-0.005951	0.017242	0.030823	-0.001221	-0.008392
47.133	0.016937	0.028381	-0.26245	0.00946	-0.013733	-0.052795	-0.089569	-0.001221	0.038605	-0.097046	-0.010223	0.049286	0.26504	-1.0217	-0.049896	-0.25482	-0.016937	0.24231	0.44769	0.11765	0.42114	-0.010681	0.25589	0.54352	-0.15701	-0.002747	0.021057	-0.003357	0.069427	0.026703	-0.001526	-0.011292
47.134	0.0177	0.018158	-0.2092	-0.021057	-0.001373	-0.080872	-0.09613	0.006256	0.019989	0.038452	0.003052	-0.014191	0.14893	-0.82077	-0.026703	0.81589	-0.037994	0.40604	0.26245	0.079041	0.14984	-0.044861	0.13473	0.57816	-0.16419	-0.001678	0.011902	-0.00885	0.17487	0.01297	-0.001678	-0.014801
47.135	0.007477	0.02655	-0.16113	-0.005188	0.005951	0.029297	-0.056305	0.006409	0.012207	0.61661	-0.005493	-0.0914	0.12985	-0.31448	-0.031891	-0.49042	-0.069275	0.55466	0.15961	-0.01297	-0.027008	-0.053253	0.014343	0.37491	-0.20493	-0.004272	0.020142	-0.003357	-0.013885	-0.003662	-0.000458	-0.016022
47.136	0.01358	0.062866	-0.19577	-0.001678	0.013123	-0.028381	-0.06485	0.007782	0.007019	1.2921	0.000916	0.090485	0.14603	-0.088806	-0.053558	-0.29572	-0.046997	0.45807	0.006256	-0.070801	0.11948	-0.092773	-0.077972	0.033722	-0.19623	0.00473	0.033417	-0.002289	-0.096436	-0.020447	0.002747	-0.013123
47.137	0.013733	0.073395	-0.24124	0.006866	0.003967	-0.045624	-0.077972	-0.001678	0.018158	1.0686	-0.014648	0.1796	0.023193	0.24063	-0.053711	0.7196	0.014191	0.32547	-0.10483	-0.084534	0.33524	-0.2063	-0.024109	-0.25787	-0.15747	-0.006561	0.041504	-0.004578	-0.083923	-0.019989	-0.00061	-0.009918
47.138	0.013275	0.018616	-0.21378	0.004425	0.020905	-0.04715	-0.063171	0.000305	0.014954	0.23514	-0.00412	0.044403	0.032654	0.10269	-0.026093	-0.16174	0.044708	0.10712	0.25146	-0.18601	0.27496	-0.29053	0.11261	-0.55695	-0.059814	-0.002441	0.014648	0.004425	0.37689	-0.028687	-0.00061	-0.004272
47.139	0.024719	0.022888	-0.19196	0.010986	0.046692	-0.035248	-0.048218	0.010071	0.010986	0.1384	-0.013733	0.18402	0.026398	-0.005035	0.021362	-0.16663	0.00351	-0.068054	0.95978	-0.16769	0.18951	-0.028229	0.20721	-0.74173	0.057831	-0.00351	0.004272	-0.00412	0.31479	0.001068	0.001984	-0.003052
47.14	0.015869	0.043335	-0.19592	0.010071	0.023956	-0.052643	-0.038757	-0.000763	-0.004578	-0.087433	-0.017853	-0.495	0.023651	0.03006	0.007629	0.58991	-0.00824	-0.23209	0.94574	-0.056915	0.005646	0.31662	0.177	-0.98999	0.15472	-0.005798	0.018158	0.000458	0.25864	-0.016022	0.000763	-0.004425
47.141	0.009613	0.053711	-0.1799	-0.000305	0.015411	-0.06134	-0.025024	0.00885	-0.010681	-0.85861	0.004425	-0.033875	0.048218	-0.61478	-0.031128	0.21103	-0.015869	-0.22232	0.47775	0.082703	0.014038	0.53787	-0.20096	-0.68253	0.33157	-0.00412	0.049133	-0.001678	0.035553	-0.028534	-0.001068	-0.002441
47.142	0.013275	0.063171	-0.1741	-0.00351	0.00885	-0.020752	-0.008392	-0.002441	-0.004272	-0.82504	0.020752	0.04776	0.095825	-0.58289	-0.028992	-0.035095	0.007629	-0.19333	0.10361	0.20279	0.18509	0.62363	-0.18906	-0.43366	0.48462	-0.002289	0.058289	0.003815	-0.015869	-0.037842	-0.001373	-0.002899
47.143	0.008698	0.033264	-0.13763	-0.009613	0.000458	0.019379	-0.048218	0.00061	0.002747	-0.61157	0.007477	0.014801	0.065002	-0.1799	-0.057068	-0.094757	0.016785	-0.12909	-0.15381	0.29312	0.14053	0.84869	-0.048981	0.11978	0.62531	-0.008087	-0.028534	-0.006256	0.20309	-0.020599	-0.002136	-0.006256
47.144	0.016479	0.016327	-0.11124	0.01709	-0.003357	0.083466	-0.048523	0.005035	-0.00946	-0.41596	0.014343	-0.012512	-0.053406	0.19409	-0.0737	0.003357	0.024109	-0.08255	-0.1088	0.19699	0.043182	0.76981	-0.15717	0.27023	0.48065	-0.010376	0.00412	-0.004578	0.40314	0.003204	-0.001984	-0.006256
47.145	0.007935	0.005798	-0.085449	0.028381	-0.02594	0.16098	-0.017853	0.008087	-0.006104	0.010071	0.010376	0.060883	-0.11154	0.42053	-0.059204	0.12054	0.02594	-0.059052	-0.033875	0.036469	-0.033112	0.49927	-0.19501	0.36606	0.054779	-0.007629	0.055389	-0.009003	-0.028534	0.016632	-0.000763	-0.009613
